<svg width="290" height="86" viewBox="0 0 290 86" fill="none" xmlns="http://www.w3.org/2000/svg">
<path d="M31.1425 63.0467C37.1925 63.0467 43.9025 61.1767 47.6425 58.7017L47.6975 40.8817C43.8475 44.3467 35.2675 47.7017 30.7575 47.7017C26.6325 47.7017 24.1575 45.6117 24.1575 42.6967C24.1575 39.8917 26.5775 37.8567 29.6575 37.8567C32.0775 37.8567 33.6725 39.0667 34.4425 40.8817L46.5425 31.0367C43.9025 26.6917 37.0825 22.8967 28.7775 22.8967C16.4575 22.8967 6.77747 31.6967 6.77747 42.8617C6.77747 54.6317 15.9075 63.0467 31.1425 63.0467Z" fill="white"/>
<path d="M73.7802 62.8696C86.8577 61.4951 96.7472 54.5087 94.2937 41.6023L90.0472 19.8773L71.1907 21.5863L74.7352 42.2862C75.2578 45.0604 74.6543 47.0153 72.1416 47.2794C69.6289 47.5435 68.279 46.03 68.2133 43.2078L67.15 22.4369L48.873 24.2049L49.2934 46.3321C49.5768 59.4665 60.7598 64.2381 73.7802 62.8696Z" fill="#F77080"/>
<path d="M113.873 62.9513C125.633 64.1873 135.233 60.7168 136.125 52.2385C136.941 44.4713 129.029 40.8193 121.682 40.213C115.381 39.6613 110.536 39.9816 110.737 38.0671C110.921 36.3168 115.766 35.9965 120.853 36.5311C126.159 37.0888 131.059 38.8758 133.494 40.9568L134.914 27.4462C131.339 25.6878 124.907 23.7398 118.945 23.1132C107.349 21.8944 97.9844 25.2238 97.1278 33.3739C96.3172 41.0864 105.075 45.1039 112.805 45.7504C118.779 46.2677 122.521 45.389 122.303 47.4676C122.113 49.2726 118.224 49.9699 113.027 49.4238C105.643 48.6477 99.571 45.908 95.5659 41.3946L93.7605 57.5192C98.8881 59.7725 107.965 62.3304 113.873 62.9513Z" fill="white"/>
<path d="M166.044 62.2921C169.38 61.9414 173.837 60.1458 175.93 58.4879L174.194 42.4989C172.91 43.9611 170.721 45.2751 168.807 45.4763C165.689 45.804 164.044 44.5061 164.171 41.5064V36.0479L174.564 34.9619L173.273 21.09L137.119 24.7054L139.119 38.6872L147.652 37.7904L147.319 47.7799C147.421 58.2214 155.487 63.4017 166.044 62.2921Z" fill="#A377FF"/>
<path d="M198.026 63.0467C210.951 63.0467 220.081 54.4117 220.081 42.9717C220.081 31.5317 210.951 22.0825 198.026 22.0825C185.101 22.0825 175.971 31.5317 175.971 42.9717C175.971 54.4117 185.101 63.0467 198.026 63.0467ZM198.026 47.5321C195.276 47.5321 193.351 45.9967 193.351 42.9717C193.351 39.8917 195.276 37.8567 198.026 37.8567C200.721 37.8567 202.701 39.8917 202.701 42.9717C202.701 45.9967 200.721 47.5321 198.026 47.5321Z" fill="#73F4DE"/>
<path d="M239.363 63.2746C250.139 62.142 256.454 54.3442 255.494 45.2095L253.166 21.5863L222.896 24.7054L224.305 37.8694L237.597 36.4724L238.224 42.4345C238.552 45.5523 235.329 47.1642 231.828 47.5321C229.421 47.7851 226.505 47.1863 224.305 46.2561L226.153 62.285C230.592 63.4776 235.152 63.7172 239.363 63.2746Z" fill="#FFCC4D"/>
<path d="M262.406 61.2646L279.198 63.0295L283.223 24.7404L266.43 22.9755L262.406 61.2646Z" fill="white"/>
<path d="M96.9273 83.1395C98.6762 83.1395 100.094 81.7217 100.094 79.9728C100.094 78.2239 98.6762 76.8062 96.9273 76.8062C95.1784 76.8062 93.7606 78.2239 93.7606 79.9728C93.7606 81.7217 95.1784 83.1395 96.9273 83.1395Z" fill="#FFCC4D"/>
<path d="M214.607 75.1667C216.356 75.1667 217.774 73.7489 217.774 72C217.774 70.2511 216.356 68.8334 214.607 68.8334C212.858 68.8334 211.44 70.2511 211.44 72C211.44 73.7489 212.858 75.1667 214.607 75.1667Z" fill="#73F4DE"/>
<path d="M211.44 9.02831C213.772 9.02831 215.663 7.13795 215.663 4.80608C215.663 2.47422 213.772 0.583862 211.44 0.583862C209.108 0.583862 207.218 2.47422 207.218 4.80608C207.218 7.13795 209.108 9.02831 211.44 9.02831Z" fill="#73F4DE"/>
<path d="M255.589 85.4445L264.036 74.8868L257.703 70.6667L255.589 85.4445Z" fill="#A377FF"/>
<path d="M16.9706 78.7029L12.0348 66.8469L7.57195 79.6086L16.9706 78.7029ZM60.7966 15.3617L52.3521 17.4728L54.4632 9.02832L60.7966 15.3617Z" fill="#EA596E"/>
<path fill-rule="evenodd" clip-rule="evenodd" d="M51.46 63.1103L50.9535 63.4455C46.0288 66.7045 38.1007 68.7869 31.1423 68.7869C22.4525 68.7869 14.8669 66.3812 9.35062 61.6711C3.75476 56.893 0.777344 50.1428 0.777344 42.6019C0.777344 27.5913 13.7017 16.6369 28.7773 16.6369C34.2427 16.6369 39.4785 18.0132 43.7367 20.3697L43.735 20.2824L94.1113 14.9876L95.6677 22.9502C97.3519 21.2607 99.3935 19.9369 101.612 18.9701C106.786 16.7148 113.166 16.2129 119.572 16.8862C124.176 17.3702 129.034 18.5501 132.998 19.9309L178.541 15.1442L179.354 22.8834C184.276 18.9297 190.785 16.6369 198.026 16.6369C205.282 16.6369 211.802 18.939 216.727 22.9077L216.406 19.853L258.425 15.4367L259.793 28.4599L261.09 16.1214L289.817 19.1407L284.538 69.364L255.812 66.3447L256.385 60.8879C252.559 65.2873 246.846 68.2614 239.991 68.9819C235.128 69.493 229.821 69.2235 224.596 67.8198L220.586 66.7424L219.877 59.5032C214.779 65.2968 206.96 68.7869 198.026 68.7869C190.979 68.7869 184.625 66.6152 179.753 62.8542L179.656 62.9315C177.961 64.2734 175.719 65.396 173.635 66.2095C171.508 67.04 169.023 67.7522 166.671 67.9995C160.344 68.6645 154.073 67.5187 149.207 63.9423C145.603 61.2931 143.151 57.5845 142.025 53.1615C141.135 59.6719 136.858 64.0801 131.515 66.4591C126.248 68.8047 119.753 69.3425 113.246 68.6586C106.66 67.9664 96.9824 65.229 91.3465 62.7524L91.2146 62.6944C86.4987 66.1963 80.446 68.0316 74.3225 68.6752C67.3314 69.41 60.088 68.5962 54.3162 65.1481C53.2971 64.5393 52.3431 63.8592 51.46 63.1103ZM53.6474 56.8289C51.5726 54.3399 50.3313 51.0455 50.2411 46.8679L49.8385 25.6739L66.7951 23.8917L67.5203 43.9458C67.5832 46.649 69.7191 48.0283 72.1258 47.7753C74.5326 47.5224 76.335 45.7291 75.8345 43.0719L72.4291 23.2995L89.2763 21.5288L93.3437 42.3377C93.3862 42.5615 93.4249 42.7835 93.4598 43.0037C93.7198 44.6461 93.767 46.1852 93.6228 47.6216C93.2494 51.3423 91.5926 54.3741 89.0281 56.7295C88.5957 57.1267 88.1375 57.5046 87.6553 57.8634C84.0778 60.525 79.1792 62.1317 73.6953 62.7081C65.3654 63.5836 57.8205 61.8353 53.6474 56.8289ZM94.5139 57.5942C95.1468 57.8723 95.0864 57.8203 95.8263 58.1035C101.081 60.1146 108.695 62.1472 113.873 62.6914C125.633 63.9275 135.233 60.457 136.125 51.9787C136.164 51.6047 136.183 51.2403 136.183 50.8853C136.182 48.5187 135.328 46.5707 133.928 45.006C133.872 44.9434 133.815 44.8813 133.758 44.8198C133.114 44.1352 132.364 43.5267 131.534 42.991C128.884 41.2787 125.427 40.3115 122.055 39.9866C121.931 39.9746 121.807 39.9634 121.682 39.9532C121.274 39.9174 120.871 39.8853 120.476 39.856C119.677 39.7969 118.908 39.7492 118.175 39.7061C117.941 39.6923 117.71 39.679 117.484 39.6659C117.128 39.6452 116.781 39.6252 116.446 39.6049C112.904 39.3899 110.597 39.1405 110.737 37.8073C110.864 36.5935 113.233 36.0674 116.37 36.0372C117.757 36.0239 119.293 36.1074 120.853 36.2713C121.229 36.3109 121.603 36.3566 121.975 36.4082C121.981 36.409 121.987 36.4098 121.993 36.4106C124.045 36.6968 126.013 37.1615 127.771 37.7483C130.064 38.5135 132.001 39.4864 133.308 40.5422C133.372 40.5936 133.434 40.6452 133.494 40.697L134.914 27.1864C134.147 26.8089 133.247 26.4227 132.25 26.0427C132.09 25.9821 131.929 25.9217 131.765 25.8615C128.166 24.5402 123.423 23.324 118.945 22.8534C108.051 21.7083 99.1261 24.5776 97.3754 31.6871C97.2626 32.1452 97.1796 32.6208 97.1278 33.1141C97.1033 33.3466 97.0876 33.5758 97.0803 33.8017C97.021 35.6261 97.5105 37.2318 98.3956 38.6236C98.5406 38.8514 98.6961 39.0736 98.8615 39.29C101.709 43.0149 107.499 45.0468 112.805 45.4906C113.009 45.5082 113.21 45.5242 113.408 45.5388C114.535 45.6215 115.575 45.6574 116.517 45.6782C116.921 45.6871 117.307 45.6932 117.673 45.699C117.768 45.7005 117.862 45.702 117.954 45.7035C119.327 45.7259 120.414 45.7534 121.159 45.9275C121.166 45.929 121.172 45.9305 121.179 45.932C121.98 46.1235 122.378 46.4886 122.302 47.2078C122.164 48.5281 120.046 49.2557 116.885 49.3376C115.724 49.3676 114.423 49.3106 113.027 49.1639C112.852 49.1455 112.677 49.1259 112.503 49.1052C112.499 49.1048 112.496 49.1044 112.492 49.104C108.185 48.5913 104.339 47.4005 101.107 45.5702C100.612 45.2901 100.132 44.9949 99.6662 44.6849C99.5 44.5742 99.3066 44.4355 99.1875 44.3164C99.0684 44.1973 98.9507 44.0652 98.9102 44.0234C98.7041 43.8108 98.6314 43.7001 98.4352 43.4789C98.4352 43.4789 98.9102 46.8262 98.1943 50.8022C97.4784 54.7781 94.5139 57.5942 94.5139 57.5942ZM147.652 37.5306L147.319 47.5201C147.421 57.9616 155.487 63.1419 166.044 62.0324C169.129 61.708 173.173 60.1478 175.419 58.6037C175.602 58.4782 175.773 58.3527 175.93 58.2281L174.113 43.0448C173.105 44.1925 171.624 45.0493 170.108 45.4621C169.692 45.5752 169.274 45.655 168.862 45.6983C168.703 45.715 168.546 45.7264 168.392 45.7327C165.523 45.8491 163.525 44.1713 163.646 41.3245L164.171 35.7944L174.564 34.7021L173.201 21.7385L137.756 25.4639L139.119 38.4275L147.652 37.5306ZM178.874 32.3303C178.466 32.9835 178.098 33.6624 177.772 34.3648C176.884 36.277 176.306 38.3629 176.079 40.5758C176.007 41.2756 175.971 41.9881 175.971 42.7119C175.971 42.7488 175.971 42.7857 175.971 42.8225C175.974 43.4793 176.008 44.1268 176.071 44.7638C176.204 46.1164 176.468 47.4219 176.854 48.6697C177.806 51.751 179.501 54.4804 181.79 56.6981C185.705 60.4908 191.361 62.7869 198.026 62.7869C208.213 62.7869 216.043 57.4221 218.903 49.5475C219.173 48.8033 219.399 48.0366 219.578 47.2499C219.811 46.229 219.965 45.1744 220.036 44.0914C220.066 43.6364 220.081 43.1765 220.081 42.7119C220.081 41.1175 219.903 39.5776 219.563 38.108C219.561 38.0989 219.559 38.0897 219.557 38.0806C219.177 36.4523 218.598 34.9106 217.838 33.4768C214.369 26.9319 207.141 22.6369 198.026 22.6369C190.367 22.6369 184.041 25.6687 180.157 30.5195C179.694 31.0979 179.266 31.7022 178.874 32.3303ZM224.305 46.2563L226.153 62.0253C230.592 63.2178 235.152 63.4574 239.363 63.0148C250.139 61.8822 256.454 54.0844 255.493 44.9498L253.085 22.031L223 25.193L224.305 37.6096L237.597 36.2126L238.242 42.3648C238.242 42.3648 238.443 44.0914 237.495 45.1362C236.998 45.6843 234.844 47.5207 231.866 47.6778C229.168 47.8202 225.764 47.046 224.305 46.2563ZM141.426 44.218L140.65 44.2995C140.922 44.8389 141.162 45.4004 141.367 45.9838L141.426 44.218ZM30.818 47.4417C30.7977 47.4418 30.7775 47.4419 30.7573 47.4419C26.6323 47.4419 24.1573 45.3519 24.1573 42.4369C24.1573 39.6319 26.5773 37.5969 29.6573 37.5969C30.8557 37.5969 31.8518 37.8936 32.6456 38.4136C33.4547 38.9436 34.0537 39.7057 34.4423 40.6219L46.5423 30.7769C46.0312 29.9356 45.3634 29.115 44.5584 28.3386C44.3409 28.1288 44.1134 27.9222 43.8763 27.7193C43.3847 27.2987 42.8517 26.8939 42.2807 26.5091C38.8821 24.2187 34.1392 22.6369 28.7773 22.6369C16.4573 22.6369 6.77734 31.4369 6.77734 42.6019C6.77734 54.3719 15.9073 62.7869 31.1423 62.7869C37.1123 62.7869 43.7249 60.966 47.4923 58.5398C47.5429 58.5073 47.5929 58.4746 47.6423 58.4419C47.6423 58.4419 45.434 55.2021 44.9386 50.3296C44.4433 45.457 44.9386 42.6019 44.9386 42.6019L44.1682 43.088C43.383 43.5367 42.5476 43.9679 41.6857 44.3728C40.1965 45.0725 38.6285 45.6936 37.1046 46.1909C34.7535 46.9581 32.5074 47.4306 30.818 47.4417ZM198.457 41.8741C198.243 41.7843 198.084 41.7719 198.026 41.7719C197.938 41.7719 197.771 41.79 197.562 41.8779C197.352 41.9663 197.156 42.1027 196.998 42.2715C196.829 42.4513 196.755 42.6071 196.722 42.6958C196.724 42.7009 196.727 42.7063 196.729 42.7119C196.764 42.797 196.837 42.9316 196.982 43.0873C197.141 43.2583 197.341 43.3979 197.555 43.4887C197.768 43.5787 197.938 43.5969 198.026 43.5969C198.084 43.5969 198.246 43.5844 198.464 43.4925C198.686 43.3992 198.897 43.2524 199.066 43.0691C199.199 42.9246 199.273 42.7986 199.313 42.7119C199.315 42.7059 199.318 42.7001 199.32 42.6945C199.283 42.6023 199.206 42.4568 199.05 42.2896C198.882 42.1085 198.674 41.965 198.457 41.8741ZM279.198 62.7697L262.406 61.0048L266.43 22.7157L283.223 24.4806L279.198 62.7697ZM193.351 42.7119C193.351 45.7369 195.276 47.7719 198.026 47.7719C200.721 47.7719 202.701 45.7369 202.701 42.7119C202.701 39.6319 200.721 37.5969 198.026 37.5969C195.276 37.5969 193.351 39.6319 193.351 42.7119Z" fill="black"/>
</svg>
